<?xml version="1.0" encoding="UTF-8"?>
<svg class="img-fluid" id="outputsvg" xmlns="http://www.w3.org/2000/svg" style="transform: matrix(0.856831, 0, 0, 0.856831, 60.687, -4.59741); transform-origin: 50% 50%; cursor: move; transition: transform 200ms ease-in-out;" width="1194" height="1240" viewBox="0 0 11940 12400"><g id="l1Pm8piBVkB8sdtEQHfWgrx" fill="rgb(131,205,188)" style="transform: none;"><g><path id="palMlsI3g" d="M3970 10900 l0 -30 35 22 c44 29 44 38 0 38 -32 0 -35 -2 -35 -30z"></path><path id="p7rRrMwVe" d="M4330 10589 c69 -62 150 -92 150 -55 0 13 -72 56 -93 56 -8 0 -17 9 -20 20 -4 16 -13 20 -44 20 l-38 -1 45 -40z"></path><path id="pCCkr6OZD" d="M4530 10321 c0 -20 25 -31 73 -31 41 0 33 25 -12 38 -52 16 -61 15 -61 -7z"></path><path id="pDE88gC6V" d="M8756 6990 c-108 -33 -166 -153 -117 -248 28 -55 58 -76 401 -282 52 -31 129 -79 170 -107 41 -27 111 -70 155 -96 44 -26 118 -72 165 -101 47 -29 135 -83 195 -120 153 -94 164 -106 129 -141 -23 -23 16 -41 -459 213 -88 47 -218 115 -290 152 -71 37 -276 145 -455 240 -549 293 -584 310 -624 310 -103 0 -206 -100 -206 -200 0 -55 33 -114 81 -148 24 -16 157 -97 294 -180 138 -82 401 -241 585 -352 184 -112 392 -237 462 -278 172 -101 195 -128 137 -165 -19 -12 0 -22 -519 258 -74 40 -306 164 -515 275 -209 111 -436 233 -505 271 -174 95 -254 131 -306 137 -154 17 -292 -182 -224 -323 25 -52 43 -66 250 -185 80 -46 208 -120 285 -165 194 -113 486 -282 845 -488 428 -247 422 -243 418 -270 -6 -41 -42 -32 -196 51 -81 44 -187 101 -237 127 -49 26 -94 51 -100 55 -5 4 -64 36 -130 70 -66 35 -208 110 -315 168 -656 353 -620 335 -695 340 -69 5 -102 -8 -149 -54 -49 -50 -69 -100 -64 -166 8 -106 16 -114 423 -358 516 -309 676 -406 975 -590 146 -90 312 -193 370 -228 371 -228 449 -305 450 -443 0 -89 -38 -153 -117 -196 -64 -35 -86 -39 -343 -63 -144 -13 -360 -63 -431 -101 -125 -67 -239 -227 -239 -337 0 -47 4 -58 30 -82 48 -45 95 -51 297 -40 320 18 655 40 828 55 94 9 240 20 325 25 85 6 189 15 230 20 41 5 152 16 245 25 498 46 718 91 950 195 328 147 579 482 657 875 27 138 21 398 -12 525 -124 468 -426 770 -1205 1204 -237 132 -1764 900 -1810 910 -16 4 -37 9 -45 11 -8 1 -28 -1 -44 -5z m2155 -1409 c67 -71 140 -171 168 -232 12 -24 50 -129 86 -233 71 -202 119 -308 156 -343 13 -12 49 -31 79 -43 69 -27 80 -36 80 -67 0 -78 -87 -293 -151 -372 l-32 -41 -46 34 c-63 45 -96 53 -241 59 -202 9 -489 93 -556 163 -67 70 -96 174 -59 214 38 42 82 16 128 -76 9 -17 24 -35 34 -39 35 -15 198 -33 215 -23 10 5 36 33 59 63 40 54 41 56 34 112 -6 48 -13 62 -43 91 -65 60 -117 85 -177 84 -82 -1 -150 -45 -141 -92 13 -62 -93 -111 -114 -54 -11 27 -4 117 11 145 11 21 113 91 159 109 19 7 39 17 45 22 15 14 62 9 122 -12 69 -24 92 -25 100 -4 7 19 -83 114 -108 114 -10 0 -31 14 -47 30 -33 33 -52 38 -52 15 0 -11 -11 -15 -39 -15 -25 0 -50 -9 -72 -25 -108 -78 -125 -85 -147 -63 -20 20 -13 55 16 85 16 15 34 38 41 50 19 37 68 55 159 61 l84 5 99 -48 c54 -27 102 -45 106 -41 11 11 -103 113 -170 154 -29 18 -79 37 -112 43 -93 17 -122 32 -130 68 -14 66 37 76 197 41 112 -25 131 -37 233 -139 44 -45 83 -81 88 -81 18 0 -54 112 -135 211 -39 48 -49 94 -26 117 22 22 42 12 99 -47z m-1377 -484 c33 -12 83 -17 153 -17 57 0 139 -7 181 -16 94 -19 305 -89 349 -115 42 -26 88 -98 103 -159 10 -43 10 -54 -4 -75 -32 -48 -81 -29 -126 49 -34 61 -34 61 -143 75 -116 16 -111 18 -167 -56 -55 -72 -55 -72 -30 -163 9 -33 18 -40 98 -78 48 -23 95 -42 104 -42 40 0 127 41 134 63 21 71 55 107 99 107 27 0 37 -39 30 -111 -6 -59 -11 -73 -38 -100 -42 -41 -162 -99 -207 -99 -19 0 -68 9 -108 20 -87 24 -92 24 -92 3 0 -25 72 -88 134 -117 89 -42 147 -33 240 38 50 38 74 44 94 24 22 -22 13 -56 -29 -112 -49 -65 -93 -87 -194 -93 -69 -5 -72 -4 -168 47 -138 72 -147 53 -23 -52 76 -64 131 -93 196 -102 99 -15 154 -61 130 -106 -17 -32 -54 -34 -177 -10 -133 26 -166 46 -270 158 -108 118 -86 41 30 -103 71 -89 83 -115 67 -145 -22 -41 -54 -25 -139 71 -105 119 -130 165 -197 360 -73 217 -141 375 -175 406 -15 14 -53 37 -85 50 -91 37 -91 37 -66 140 24 100 96 252 142 301 l30 33 38 -29 c20 -16 59 -36 86 -45z"></path></g></g><g id="l2bBSw3rA5PXHCeKapnKvPg" fill="rgb(72,196,242)" style="transform: none;"><g><path id="pocl5BnuS" d="M9343 10790 c-373 -75 -784 -295 -1498 -804 -114 -81 -243 -174 -755 -542 -429 -308 -486 -352 -507 -390 -44 -77 -24 -169 50 -228 34 -27 47 -31 100 -31 68 0 23 -24 492 255 72 42 270 160 440 261 326 193 367 211 373 159 2 -18 -5 -31 -25 -46 -43 -32 -1075 -741 -1343 -923 -297 -202 -293 -199 -306 -278 -21 -134 105 -266 223 -233 43 11 48 14 298 167 99 60 317 193 485 295 168 101 403 244 523 318 121 73 227 135 238 137 23 6 49 -13 49 -36 0 -10 -10 -27 -22 -38 -13 -12 -329 -229 -703 -484 -374 -254 -734 -499 -799 -543 -133 -91 -169 -129 -187 -198 -22 -80 22 -186 104 -252 35 -28 45 -31 110 -31 l72 0 250 158 c138 87 302 193 365 234 63 42 183 117 265 168 83 50 245 152 360 225 116 73 266 168 334 212 123 77 166 93 178 62 9 -23 -20 -47 -232 -190 -104 -71 -300 -204 -435 -296 -135 -92 -364 -247 -509 -345 -329 -221 -361 -253 -361 -358 1 -129 111 -229 233 -211 28 4 77 26 129 58 732 449 1768 1068 1893 1131 129 65 245 84 318 53 55 -23 124 -108 138 -172 18 -81 2 -145 -89 -361 -102 -240 -122 -301 -129 -393 -14 -192 121 -430 244 -430 40 0 98 42 127 93 40 67 400 876 526 1182 35 83 96 231 137 330 220 531 296 767 324 1007 63 542 -299 1084 -847 1266 -50 17 -128 38 -174 46 -114 22 -337 20 -457 -4z m667 -560 l0 -160 91 -87 c182 -176 249 -342 236 -583 -21 -378 -249 -639 -611 -701 -44 -7 -106 -9 -170 -5 -244 17 -337 56 -457 192 -46 53 -78 117 -49 99 19 -12 10 4 -34 54 -46 55 -62 83 -100 176 -13 33 -44 110 -69 170 -25 61 -66 164 -93 230 -26 66 -58 143 -70 171 -30 67 -22 74 83 74 101 0 97 -7 113 175 6 71 16 135 22 142 7 9 44 13 122 13 74 0 116 4 124 12 7 7 12 43 12 93 0 45 3 85 7 88 3 4 195 7 425 7 l418 0 0 -160z"></path><path id="pkJ2ApmMM" d="M9735 9936 c-48 -21 -66 -58 -75 -153 -10 -112 -38 -155 -130 -200 -53 -26 -90 -35 -194 -48 -198 -24 -277 -61 -312 -142 -20 -46 -17 -93 10 -167 49 -136 148 -246 286 -320 50 -27 77 -46 65 -47 -11 0 3 -7 30 -15 69 -19 251 -18 328 2 93 24 170 68 247 140 126 120 178 236 187 419 5 98 3 116 -16 160 -18 43 -32 56 -92 94 -82 50 -119 97 -149 187 -17 51 -29 70 -54 85 -36 22 -88 24 -131 5z m-55 -538 c3 -42 10 -82 15 -87 6 -6 44 -11 85 -13 l75 -3 0 -75 0 -75 -75 -3 c-41 -2 -79 -7 -85 -13 -5 -5 -12 -45 -15 -87 l-5 -77 -75 0 -75 0 -3 75 c-2 41 -8 80 -13 87 -7 7 -41 13 -87 15 l-77 3 0 75 0 75 75 3 c41 2 80 8 87 14 8 7 13 36 13 83 0 39 3 75 7 79 4 4 39 5 78 4 l70 -3 5 -77z"></path></g></g><g id="lyvkBOrYlhHJcXmGDL3EPC" fill="rgb(216,110,170)" style="transform: none;"><g><path id="pqM3uWkER" d="M2510 6331 c0 -11 55 -46 88 -56 35 -10 30 36 -5 53 -31 14 -83 16 -83 3z"></path><path id="pdGVDDfM1" d="M2790 6191 c0 -11 85 -65 118 -75 19 -6 22 -4 22 18 0 23 -4 26 -35 26 -28 0 -35 4 -35 20 0 16 -7 20 -35 20 -19 0 -35 -4 -35 -9z"></path><path id="pw2Igg3jM" d="M2214 5488 c-61 -47 -64 -53 -226 -413 -317 -704 -645 -1492 -727 -1750 -94 -290 -124 -487 -102 -665 51 -420 317 -781 721 -982 104 -51 166 -68 310 -84 138 -15 319 -6 433 20 35 8 109 24 165 36 144 29 256 71 427 159 247 127 602 355 967 620 92 67 232 168 463 333 662 473 738 530 758 573 60 125 -49 273 -186 251 -28 -5 -214 -110 -616 -348 -317 -188 -589 -348 -605 -356 -27 -14 -30 -14 -48 8 -16 19 -16 26 -6 41 7 11 148 112 313 225 695 478 851 585 1060 727 121 82 237 166 257 187 62 64 62 167 1 248 -39 51 -80 72 -143 72 -65 0 -53 6 -420 -220 -146 -89 -341 -209 -435 -265 -93 -57 -253 -153 -355 -215 -336 -206 -364 -221 -390 -218 -20 2 -26 9 -28 34 -3 30 4 36 215 179 120 82 265 181 323 220 58 40 220 150 360 245 280 191 324 221 579 395 183 126 221 164 235 241 14 73 -42 193 -114 244 -35 25 -92 36 -142 26 -31 -6 -132 -66 -498 -298 -323 -204 -452 -285 -720 -455 -157 -99 -335 -211 -396 -250 -127 -81 -133 -83 -156 -71 -24 12 -23 30 5 55 12 12 333 231 712 488 380 257 707 484 728 504 59 55 80 103 75 173 -10 131 -138 226 -255 188 -21 -7 -141 -76 -268 -153 -211 -129 -300 -183 -620 -377 -60 -37 -267 -161 -460 -275 -192 -114 -397 -236 -455 -270 -224 -134 -325 -175 -429 -175 -99 0 -156 40 -207 145 -45 93 -34 152 81 420 144 336 155 436 70 621 -69 152 -176 220 -251 162z m490 -1843 c62 -30 66 -48 66 -299 l0 -226 -27 -30 c-35 -39 -433 -217 -507 -228 l-51 -7 -6 -350 c-3 -193 -9 -381 -13 -420 -9 -84 -49 -228 -65 -233 -18 -6 -61 27 -73 56 -8 19 -10 230 -9 709 2 375 0 687 -4 693 -4 7 -57 -16 -139 -60 -74 -38 -143 -70 -155 -70 -20 0 -111 74 -111 90 0 6 355 316 423 369 31 25 84 28 366 24 217 -2 280 -6 305 -18z m437 -598 c48 -32 68 -91 48 -143 -37 -98 -178 -113 -224 -24 -61 118 67 240 176 167z m-447 -411 c69 -29 96 -107 61 -176 -32 -62 -129 -80 -184 -34 -75 63 -50 185 45 214 40 12 41 12 78 -4z m419 0 c93 -40 111 -147 36 -211 -55 -45 -152 -27 -184 35 -36 70 -3 158 68 179 44 13 44 13 80 -3z m35 -441 c43 -36 58 -77 44 -123 -17 -58 -59 -92 -117 -96 -63 -5 -71 -2 -100 49 -39 66 -28 141 27 179 36 25 111 21 146 -9z"></path></g></g><g id="lFDpAFA70u0dPPMSmpIGHR" fill="rgb(249,164,34)" style="transform: none;"><g><path id="p2nVBafVl" d="M3255 9228 c-93 -5 -203 -15 -243 -23 -41 -8 -78 -13 -82 -10 -12 7 -455 -21 -785 -50 -159 -14 -339 -30 -400 -35 -831 -67 -1178 -212 -1447 -604 -80 -117 -162 -322 -194 -484 -16 -86 -19 -328 -4 -419 48 -293 215 -578 465 -793 209 -179 475 -354 835 -547 342 -184 1700 -861 1750 -872 47 -11 100 1 143 31 29 21 107 170 107 206 0 12 -14 32 -32 46 -18 14 -53 41 -78 60 -25 19 -117 76 -205 126 -253 144 -323 187 -358 216 -17 15 -60 40 -95 55 -77 35 -192 102 -252 148 -25 19 -68 44 -96 57 -73 32 -153 83 -164 104 -7 13 -5 24 8 39 l17 21 75 -33 c41 -18 111 -52 155 -75 44 -23 163 -84 265 -134 102 -50 187 -95 190 -98 3 -4 23 -16 45 -28 22 -11 69 -34 104 -52 36 -18 90 -49 120 -68 31 -20 96 -55 145 -79 48 -24 115 -62 148 -84 32 -22 73 -45 91 -51 18 -6 41 -17 52 -24 11 -6 31 -15 44 -19 14 -4 57 -28 95 -53 119 -76 237 -132 279 -132 102 0 207 98 207 192 0 101 -31 135 -227 247 -126 73 -193 115 -403 250 -58 37 -139 87 -180 111 -41 24 -88 56 -105 70 -35 32 -157 110 -217 141 -24 12 -56 31 -73 44 -16 12 -80 47 -140 79 -61 31 -116 65 -122 75 -11 17 -8 21 28 35 39 16 40 16 117 -20 151 -71 228 -109 277 -138 28 -16 86 -47 130 -69 44 -21 121 -63 170 -91 50 -29 137 -79 195 -111 58 -32 126 -71 153 -87 26 -15 50 -28 53 -28 3 0 24 -13 47 -28 60 -41 474 -258 526 -277 117 -41 217 9 281 141 35 71 17 180 -36 225 -17 14 -153 95 -559 329 -55 32 -140 81 -190 110 -49 29 -162 95 -250 145 -88 51 -232 134 -320 185 -88 52 -221 128 -295 170 -139 80 -158 96 -147 124 11 28 45 18 180 -55 152 -83 612 -330 802 -431 658 -352 614 -331 685 -336 221 -16 306 272 113 386 -25 15 -75 45 -112 68 -36 22 -174 105 -306 184 -132 79 -301 180 -375 225 -456 276 -1025 628 -1116 692 -81 56 -159 136 -184 188 -52 107 4 256 118 314 63 32 112 40 321 56 112 8 228 22 259 31 191 55 258 94 329 189 59 79 82 136 82 201 1 65 -22 96 -86 118 -50 17 -70 17 -328 4z m-1946 -808 c93 -46 152 -122 197 -249 21 -59 95 -151 123 -151 9 0 111 95 226 210 115 116 215 210 220 210 6 0 29 -18 50 -40 l39 -40 -179 -181 c-152 -153 -251 -246 -351 -330 -10 -9 -39 -40 -64 -69 -25 -30 -61 -70 -81 -90 -19 -19 -58 -60 -85 -90 -28 -30 -171 -174 -318 -320 l-266 -264 -46 45 -46 46 87 89 c79 80 86 91 81 119 -3 16 -9 56 -12 88 l-7 57 72 0 c54 0 73 -4 77 -15 4 -8 11 -14 18 -14 6 1 107 100 225 221 246 252 237 235 159 350 -25 35 -55 95 -69 133 -43 123 -132 189 -221 165 -43 -12 -91 -63 -108 -114 l-12 -36 -69 0 -69 0 0 34 c0 73 68 179 148 228 88 54 185 57 281 8z m775 -463 c98 -133 145 -273 153 -453 6 -139 -10 -243 -58 -362 -41 -104 -144 -253 -173 -252 -6 1 -33 20 -59 44 l-48 43 36 43 c61 72 113 173 136 261 54 203 9 444 -110 593 l-32 40 48 48 c26 26 52 48 58 48 5 0 27 -24 49 -53z m-222 -200 c70 -138 96 -310 63 -422 -37 -130 -106 -230 -209 -305 -112 -82 -271 -117 -408 -91 -70 14 -194 69 -221 98 -16 18 -14 21 33 68 l50 49 52 -26 c100 -50 175 -59 279 -34 111 26 206 105 257 214 24 50 27 70 27 157 0 90 -3 105 -28 154 -40 79 -35 115 23 156 25 18 48 30 53 28 4 -2 17 -23 29 -46z m-264 -276 c-8 -114 -55 -174 -156 -200 -32 -9 -52 -9 -82 0 -22 7 -40 14 -40 17 0 9 194 206 225 229 52 37 58 32 53 -46z"></path><path id="pLEm8V3Wg" d="M6702 5099 c-45 -13 -105 -76 -120 -127 -10 -34 -10 -161 2 -669 8 -346 18 -707 21 -803 7 -252 8 -578 0 -590 -11 -18 -45 -11 -54 13 -5 12 -14 130 -21 262 -6 132 -17 355 -25 495 -8 140 -24 419 -34 620 -13 250 -24 379 -34 408 -32 93 -87 141 -180 158 -74 13 -168 -40 -208 -118 -18 -36 -19 -76 -19 -1140 0 -1066 -5 -1262 -31 -1363 -35 -128 -108 -185 -241 -186 -106 -1 -186 56 -293 211 -202 291 -295 384 -434 431 -179 62 -386 12 -385 -92 1 -59 23 -115 72 -182 26 -37 66 -95 90 -129 210 -307 441 -635 587 -833 48 -66 111 -151 139 -190 469 -642 627 -816 906 -998 231 -150 496 -202 749 -147 286 63 435 126 611 261 318 243 483 603 517 1134 11 165 8 572 -6 795 -13 208 -78 1007 -101 1240 -6 58 -15 168 -20 245 -18 251 -31 358 -51 397 -27 53 -72 81 -139 86 -71 5 -118 -14 -156 -64 -34 -44 -31 17 -42 -894 l-7 -585 -29 -3 c-16 -2 -32 0 -36 5 -5 4 -11 51 -15 103 -3 52 -10 158 -15 235 -6 77 -21 334 -35 570 -14 237 -27 457 -30 490 -2 33 -9 164 -15 290 -12 256 -21 314 -51 356 -46 65 -166 98 -242 65 -45 -19 -95 -72 -106 -112 -5 -20 -7 -384 -4 -911 6 -822 5 -880 -11 -896 -24 -23 -43 -21 -60 6 -11 16 -19 98 -30 332 -9 171 -23 430 -31 578 -21 376 -44 794 -50 912 -3 55 -8 120 -11 145 -11 83 -63 154 -136 184 -41 17 -134 20 -186 5z m528 -2604 c197 -45 323 -131 447 -304 29 -40 31 -47 19 -70 -7 -14 -26 -54 -41 -88 -26 -57 -45 -79 -45 -52 0 29 -58 127 -108 181 -169 183 -400 239 -622 151 -129 -52 -233 -145 -294 -265 -52 -105 -65 -166 -62 -283 5 -159 57 -276 174 -393 l64 -65 -11 -70 c-6 -38 -14 -74 -17 -79 -8 -12 -86 45 -151 110 -142 143 -213 317 -213 521 0 119 22 211 74 316 78 156 175 253 331 331 50 24 119 51 155 58 87 19 220 19 300 1z m727 -280 c46 -52 45 -53 -120 -397 -107 -223 -162 -329 -181 -342 -25 -19 -29 -19 -218 -3 -106 10 -200 17 -209 17 -13 0 -19 -18 -29 -81 -13 -85 -9 -98 30 -99 90 -2 316 -32 336 -45 34 -22 34 -82 -1 -115 l-25 -23 -147 12 c-82 6 -167 14 -190 16 -49 5 -45 11 -68 -121 -26 -156 -51 -204 -119 -235 -83 -38 -167 -18 -219 53 -42 56 -40 71 43 558 36 207 54 250 117 277 47 19 153 19 352 -1 85 -9 174 -16 198 -16 l44 0 33 73 c18 39 72 151 120 248 47 97 86 180 86 185 1 16 37 54 62 64 34 14 80 3 105 -25z m-922 -1512 c49 -59 54 -74 55 -153 0 -117 -37 -164 -141 -176 -45 -5 -65 -2 -107 16 -64 28 -122 99 -122 151 0 44 39 126 76 161 43 40 72 49 144 42 59 -5 67 -8 95 -41z"></path></g></g><g id="lugPsSAq794YoOMEhigcNU" fill="rgb(170,208,58)" style="transform: none;"><g><path id="pP71OEN4i" d="M4838 12250 c-115 -11 -184 -26 -303 -67 -185 -64 -325 -153 -476 -303 -133 -132 -227 -277 -280 -432 -12 -35 -32 -86 -44 -113 -43 -97 -73 -330 -81 -625 -8 -343 7 -641 65 -1300 22 -246 60 -734 66 -840 14 -270 20 -311 53 -382 31 -64 35 -68 89 -88 68 -25 113 -21 172 18 72 47 69 17 77 804 5 592 9 705 21 714 20 17 52 5 58 -20 6 -25 22 -248 30 -406 3 -63 12 -212 20 -330 8 -118 22 -339 30 -490 38 -681 43 -746 58 -776 32 -62 108 -104 188 -104 43 0 118 31 144 60 42 47 42 51 37 976 -5 930 -6 914 38 914 44 0 51 -42 70 -455 6 -132 13 -274 16 -315 5 -78 11 -204 44 -825 26 -489 37 -530 157 -575 112 -42 231 -14 288 68 30 44 30 44 31 190 0 81 -3 278 -6 437 -15 618 -21 841 -30 1143 -7 215 -7 319 0 333 15 26 49 24 59 -3 5 -13 20 -259 35 -548 35 -686 64 -1176 72 -1220 22 -111 95 -172 208 -173 38 0 73 6 92 16 43 22 91 80 104 124 7 26 11 424 13 1203 3 1071 5 1171 21 1240 39 164 104 223 247 222 109 0 178 -51 295 -215 237 -333 308 -399 475 -442 93 -24 210 -18 274 16 40 20 53 33 63 64 19 59 -4 120 -96 255 -178 262 -533 765 -643 912 -19 24 -74 100 -124 168 -49 67 -124 168 -165 222 -86 114 -137 185 -176 243 -50 73 -190 229 -303 337 -199 189 -381 295 -589 343 -53 13 -284 38 -302 33 -3 0 -44 -4 -92 -8z m967 -590 l39 -40 -202 -203 c-111 -111 -202 -208 -202 -214 0 -7 12 -20 28 -29 98 -61 195 -125 247 -163 88 -66 229 -192 233 -209 5 -19 -120 -146 -224 -227 -182 -144 -379 -240 -580 -285 -127 -28 -322 -28 -424 1 -125 35 -180 49 -193 49 -7 0 -18 -15 -25 -34 -7 -18 -38 -60 -70 -93 -158 -164 -305 -314 -313 -318 -10 -7 -66 42 -81 68 -8 16 17 45 164 193 95 96 188 184 206 195 17 11 32 26 32 33 0 17 -41 45 -150 101 -136 71 -300 209 -342 289 -25 49 -17 71 43 111 24 16 72 53 107 82 120 100 311 217 445 272 163 68 241 85 387 85 78 0 153 -5 178 -13 l44 -12 -55 -51 -55 -50 -109 -2 c-125 -2 -175 -18 -272 -86 -126 -89 -181 -194 -189 -364 -4 -104 11 -222 28 -211 4 3 16 -5 26 -16 29 -32 122 -76 210 -99 159 -41 397 -21 557 49 42 18 52 28 75 78 38 82 44 232 13 326 -24 71 -73 154 -96 163 -10 4 -46 -25 -105 -84 -49 -49 -90 -93 -90 -96 0 -4 9 -24 20 -46 45 -89 7 -205 -82 -251 -53 -27 -129 -27 -191 0 -27 12 -64 21 -82 21 -45 0 -62 28 -42 67 16 32 1026 1052 1042 1052 6 1 29 -17 50 -39z"></path><path id="p9K6SuuFq" d="M4260 10929 c-148 -107 -165 -123 -157 -142 3 -8 34 -38 69 -66 228 -186 230 -187 276 -194 46 -7 39 11 -20 58 -44 35 -53 49 -70 105 -27 87 -15 165 47 313 14 34 -21 16 -145 -74z"></path><path id="ps0bNo2uz" d="M5460 11015 c0 -3 9 -23 19 -43 38 -75 53 -160 49 -269 -3 -65 -1 -103 5 -103 24 0 237 174 237 194 0 14 -117 108 -221 179 -66 44 -89 55 -89 42z"></path><path id="pM5px8dxq" d="M4943 10714 c-38 -40 -33 -61 11 -50 41 10 71 86 35 86 -6 0 -26 -16 -46 -36z"></path><path id="p4wT26dtu" d="M2664 6111 c4 -6 22 -18 39 -27 30 -14 31 -14 12 1 -30 25 -59 39 -51 26z"></path><path id="pC6kBzkw1" d="M7214 4380 c0 -69 1 -97 3 -62 2 34 2 90 0 125 -2 34 -3 6 -3 -63z"></path><path id="pohiYRxE" d="M6532 3110 c0 -19 2 -27 5 -17 2 9 2 25 0 35 -3 9 -5 1 -5 -18z"></path><path id="p1GSTtO9Rz" d="M6022 2430 c0 -19 2 -27 5 -17 2 9 2 25 0 35 -3 9 -5 1 -5 -18z"></path><path id="p1AsXjSeXc" d="M7092 550 c0 -19 2 -27 5 -17 2 9 2 25 0 35 -3 9 -5 1 -5 -18z"></path><path id="p18jjdh8Mg" d="M7073 113 c9 -2 25 -2 35 0 9 3 1 5 -18 5 -19 0 -27 -2 -17 -5z"></path></g></g></svg>